# xmcd
#
# Track frame offsets: 
#        150
#        18850
#        36450
#        55850
#        78287
#        94550
#        115125
#        133337
#        152300
#        175025
#
# Disc length: 2590 seconds
#
# Revision: 0
# Processed by: cddbd v1.5.2PL0 Copyright (c) Steve Scherf et al.
# Submitted via: ExactAudioCopy v1.0b4
#
DISCID=700a1c0a
DTITLE=Ella May Saison - Language Of Soul
DYEAR=1993
DGENRE=Easy Listening
TTITLE0=Till My Heartaches End
TTITLE1=Walang Hanggan
TTITLE2=Hiram Na Sandali
TTITLE3=One Body One Soul Tonight
TTITLE4=Fallin' In Love
TTITLE5=Bakit Ba
TTITLE6=Goodbye's Not Forever
TTITLE7=Dalawang Pag-Ibig
TTITLE8=Sana Man Lang
TTITLE9=Pag-Ibig Mo
EXTD=
EXTT0=
EXTT1=
EXTT2=
EXTT3=
EXTT4=
EXTT5=
EXTT6=
EXTT7=
EXTT8=
EXTT9=
PLAYORDER=
